<mxfile host="65bd71144e">
    <diagram id="7IQ0KzHX0b90F3QgN_Hj" name="Page-1">
        <mxGraphModel dx="1146" dy="426" grid="1" gridSize="10" guides="1" tooltips="1" connect="1" arrows="1" fold="1" page="1" pageScale="1" pageWidth="850" pageHeight="1100" background="#FFFFFF" math="0" shadow="0" adaptiveColors="auto">
            <root>
                <mxCell id="0"/>
                <mxCell id="1" parent="0"/>
                <mxCell id="5" value="has_plane" style="shape=rhombus;perimeter=rhombusPerimeter;whiteSpace=wrap;html=1;align=center;" parent="1" vertex="1">
                    <mxGeometry x="610" y="40" width="100" height="60" as="geometry"/>
                </mxCell>
                <mxCell id="7" value="has_origin" style="shape=rhombus;perimeter=rhombusPerimeter;whiteSpace=wrap;html=1;align=center;" parent="1" vertex="1">
                    <mxGeometry x="690" y="200" width="100" height="57.5" as="geometry"/>
                </mxCell>
                <mxCell id="8" value="Plane" style="whiteSpace=wrap;html=1;align=center;" parent="1" vertex="1">
                    <mxGeometry x="500" y="30" width="100" height="40" as="geometry"/>
                </mxCell>
                <mxCell id="9" value="Airline" style="whiteSpace=wrap;html=1;align=center;" parent="1" vertex="1">
                    <mxGeometry x="460" y="140" width="100" height="40" as="geometry"/>
                </mxCell>
                <mxCell id="10" value="Airport" style="whiteSpace=wrap;html=1;align=center;" parent="1" vertex="1">
                    <mxGeometry x="570" y="290" width="100" height="40" as="geometry"/>
                </mxCell>
                <mxCell id="13" value="has_dest" style="shape=rhombus;perimeter=rhombusPerimeter;whiteSpace=wrap;html=1;align=center;" parent="1" vertex="1">
                    <mxGeometry x="570" y="190" width="100" height="60" as="geometry"/>
                </mxCell>
                <mxCell id="29" value="Carrier" style="ellipse;whiteSpace=wrap;html=1;align=center;fontStyle=4;" parent="1" vertex="1">
                    <mxGeometry x="150" y="272.36" width="100" height="40" as="geometry"/>
                </mxCell>
                <mxCell id="30" value="Name" style="ellipse;whiteSpace=wrap;html=1;align=center;" parent="1" vertex="1">
                    <mxGeometry x="270" y="270.43" width="100" height="40" as="geometry"/>
                </mxCell>
                <mxCell id="33" value="FAA Code" style="ellipse;whiteSpace=wrap;html=1;align=center;fontStyle=4;" parent="1" vertex="1">
                    <mxGeometry x="490" y="349.86" width="100" height="40" as="geometry"/>
                </mxCell>
                <mxCell id="35" value="Tailnum" style="ellipse;whiteSpace=wrap;html=1;align=center;fontStyle=4;" parent="1" vertex="1">
                    <mxGeometry x="155" y="349.86" width="100" height="40" as="geometry"/>
                </mxCell>
                <mxCell id="36" value="Name" style="ellipse;whiteSpace=wrap;html=1;align=center;" parent="1" vertex="1">
                    <mxGeometry x="630" y="349.86" width="100" height="40" as="geometry"/>
                </mxCell>
                <mxCell id="54" value="Temp" style="ellipse;whiteSpace=wrap;html=1;align=center;" parent="1" vertex="1">
                    <mxGeometry x="140" y="617" width="100" height="40" as="geometry"/>
                </mxCell>
                <mxCell id="56" value="Weather Observation" style="shape=ext;margin=3;double=1;whiteSpace=wrap;html=1;align=center;" parent="1" vertex="1">
                    <mxGeometry x="30" y="557" width="100" height="50" as="geometry"/>
                </mxCell>
                <mxCell id="57" value="has_forecast" style="shape=rhombus;double=1;perimeter=rhombusPerimeter;whiteSpace=wrap;html=1;align=center;" parent="1" vertex="1">
                    <mxGeometry x="150" y="552" width="110" height="55" as="geometry"/>
                </mxCell>
                <mxCell id="62" value="&lt;span style=&quot;border-bottom: 1px dotted&quot;&gt;Datetime&lt;/span&gt;" style="ellipse;whiteSpace=wrap;html=1;align=center;" parent="1" vertex="1">
                    <mxGeometry x="30" y="617" width="100" height="40" as="geometry"/>
                </mxCell>
                <mxCell id="73" value="&lt;u&gt;Airline&lt;/u&gt;" style="ellipse;whiteSpace=wrap;html=1;align=center;" parent="1" vertex="1">
                    <mxGeometry x="440" y="200" width="100" height="40" as="geometry"/>
                </mxCell>
                <mxCell id="83" value="operates" style="shape=rhombus;double=1;perimeter=rhombusPerimeter;whiteSpace=wrap;html=1;align=center;" parent="1" vertex="1">
                    <mxGeometry x="160" y="40" width="90" height="60" as="geometry"/>
                </mxCell>
                <mxCell id="86" value="&lt;span style=&quot;border-bottom: 1px dotted&quot;&gt;Flight Number&lt;/span&gt;" style="ellipse;whiteSpace=wrap;html=1;align=center;" parent="1" vertex="1">
                    <mxGeometry x="680" width="100" height="40" as="geometry"/>
                </mxCell>
                <mxCell id="87" value="&lt;span style=&quot;border-bottom: 1px dotted&quot;&gt;Date&lt;/span&gt;" style="ellipse;whiteSpace=wrap;html=1;align=center;" parent="1" vertex="1">
                    <mxGeometry x="140" y="200" width="100" height="40" as="geometry"/>
                </mxCell>
                <mxCell id="88" value="&lt;span style=&quot;border-bottom: 1px dotted&quot;&gt;Departure Delay&lt;/span&gt;" style="ellipse;whiteSpace=wrap;html=1;align=center;" parent="1" vertex="1">
                    <mxGeometry x="250" y="200" width="100" height="40" as="geometry"/>
                </mxCell>
                <mxCell id="92" value="Year" style="ellipse;whiteSpace=wrap;html=1;align=center;" parent="1" vertex="1">
                    <mxGeometry x="270" y="349.86" width="100" height="40" as="geometry"/>
                </mxCell>
                <mxCell id="109" value="Weather Observation" style="whiteSpace=wrap;html=1;align=center;" parent="1" vertex="1">
                    <mxGeometry x="30" y="507" width="100" height="40" as="geometry"/>
                </mxCell>
                <mxCell id="110" value="has_forecast" style="shape=rhombus;perimeter=rhombusPerimeter;whiteSpace=wrap;html=1;align=center;" parent="1" vertex="1">
                    <mxGeometry x="150" y="498.5" width="110" height="48.5" as="geometry"/>
                </mxCell>
                <mxCell id="112" value="Flight" style="shape=ext;margin=3;double=1;whiteSpace=wrap;html=1;align=center;" parent="1" vertex="1">
                    <mxGeometry x="30" y="50" width="100" height="40" as="geometry"/>
                </mxCell>
                <mxCell id="113" value="Flight" style="whiteSpace=wrap;html=1;align=center;" parent="1" vertex="1">
                    <mxGeometry x="720" y="70" width="100" height="40" as="geometry"/>
                </mxCell>
                <mxCell id="114" value="operates" style="shape=rhombus;perimeter=rhombusPerimeter;whiteSpace=wrap;html=1;align=center;" parent="1" vertex="1">
                    <mxGeometry x="560" y="100" width="100" height="60" as="geometry"/>
                </mxCell>
                <mxCell id="115" value="" style="endArrow=none;html=1;entryX=0.96;entryY=0.178;entryDx=0;entryDy=0;entryPerimeter=0;" edge="1" parent="1" source="10" target="33">
                    <mxGeometry width="50" height="50" relative="1" as="geometry">
                        <mxPoint x="500" y="290" as="sourcePoint"/>
                        <mxPoint x="550" y="240" as="targetPoint"/>
                        <Array as="points"/>
                    </mxGeometry>
                </mxCell>
                <mxCell id="116" value="" style="endArrow=none;html=1;exitX=0.08;exitY=0.203;exitDx=0;exitDy=0;exitPerimeter=0;" edge="1" parent="1" source="36" target="10">
                    <mxGeometry width="50" height="50" relative="1" as="geometry">
                        <mxPoint x="500" y="290" as="sourcePoint"/>
                        <mxPoint x="550" y="240" as="targetPoint"/>
                    </mxGeometry>
                </mxCell>
                <mxCell id="117" value="" style="endArrow=none;html=1;" edge="1" parent="1" source="10" target="7">
                    <mxGeometry width="50" height="50" relative="1" as="geometry">
                        <mxPoint x="500" y="200" as="sourcePoint"/>
                        <mxPoint x="550" y="150" as="targetPoint"/>
                    </mxGeometry>
                </mxCell>
                <mxCell id="118" value="" style="endArrow=none;html=1;entryX=0.4;entryY=0.174;entryDx=0;entryDy=0;entryPerimeter=0;" edge="1" parent="1" source="113" target="7">
                    <mxGeometry width="50" height="50" relative="1" as="geometry">
                        <mxPoint x="500" y="200" as="sourcePoint"/>
                        <mxPoint x="550" y="150" as="targetPoint"/>
                    </mxGeometry>
                </mxCell>
                <mxCell id="119" value="" style="endArrow=none;html=1;" edge="1" parent="1" source="113" target="13">
                    <mxGeometry width="50" height="50" relative="1" as="geometry">
                        <mxPoint x="500" y="200" as="sourcePoint"/>
                        <mxPoint x="550" y="150" as="targetPoint"/>
                    </mxGeometry>
                </mxCell>
                <mxCell id="120" value="" style="endArrow=none;html=1;" edge="1" parent="1" source="10" target="13">
                    <mxGeometry width="50" height="50" relative="1" as="geometry">
                        <mxPoint x="500" y="200" as="sourcePoint"/>
                        <mxPoint x="550" y="150" as="targetPoint"/>
                    </mxGeometry>
                </mxCell>
            </root>
        </mxGraphModel>
    </diagram>
</mxfile>